<svg width="150" height="150" viewBox="0 0 157 124" fill="none" xmlns="http://www.w3.org/2000/svg">
<path d="M4.04545 103V56.4545H34.8636V64.5682H13.8864V75.6591H32.8182V83.7727H13.8864V103H4.04545ZM50.983 56.4545V103H41.3011V56.4545H50.983ZM74.6477 103.682C71.0568 103.682 67.9659 102.955 65.375 101.5C62.7992 100.03 60.8144 97.9545 59.4205 95.2727C58.0265 92.5758 57.3295 89.3864 57.3295 85.7045C57.3295 82.1136 58.0265 78.9621 59.4205 76.25C60.8144 73.5379 62.7765 71.4242 65.3068 69.9091C67.8523 68.3939 70.8371 67.6364 74.2614 67.6364C76.5644 67.6364 78.7083 68.0076 80.6932 68.75C82.6932 69.4773 84.4356 70.5758 85.9205 72.0455C87.4205 73.5152 88.5871 75.3636 89.4205 77.5909C90.2538 79.803 90.6705 82.3939 90.6705 85.3636V88.0227H61.1932V82.0227H81.5568C81.5568 80.6288 81.2538 79.3939 80.6477 78.3182C80.0417 77.2424 79.2008 76.4015 78.125 75.7955C77.0644 75.1742 75.8295 74.8636 74.4205 74.8636C72.9508 74.8636 71.6477 75.2045 70.5114 75.8864C69.3902 76.553 68.5114 77.4545 67.875 78.5909C67.2386 79.7121 66.9129 80.9621 66.8977 82.3409V88.0455C66.8977 89.7727 67.2159 91.2652 67.8523 92.5227C68.5038 93.7803 69.4205 94.75 70.6023 95.4318C71.7841 96.1136 73.1856 96.4545 74.8068 96.4545C75.8826 96.4545 76.8674 96.303 77.7614 96C78.6553 95.697 79.4205 95.2424 80.0568 94.6364C80.6932 94.0303 81.178 93.2879 81.5114 92.4091L90.4659 93C90.0114 95.1515 89.0795 97.0303 87.6705 98.6364C86.2765 100.227 84.4735 101.47 82.2614 102.364C80.0644 103.242 77.5265 103.682 74.6477 103.682ZM104.455 68.0909L110.864 80.2955L117.432 68.0909H127.364L117.25 85.5455L127.636 103H117.75L110.864 90.9318L104.091 103H94.0909L104.455 85.5455L94.4545 68.0909H104.455Z" fill="white"/>
<line x1="104.355" y1="102.99" x2="104.355" y2="85.47" stroke="#9BAC3C" stroke-width="0.79"/>
<line x1="94.0075" y1="102.987" x2="104.263" y2="85.7147" stroke="#9BAC3C" stroke-width="0.5"/>
<line x1="94" y1="102.728" x2="104" y2="102.728" stroke="#9BAC3C" stroke-width="0.5"/>
<path d="M101.031 93.9674C101.058 93.7539 101.554 93.2313 101.719 93.0992C101.955 92.9101 102.004 92.5043 102.261 92.3757" stroke="#9BAC3C" stroke-width="0.5" stroke-linecap="round" stroke-dasharray="1 1"/>
<path d="M101.9 93.5333C101.811 94.5994 101.104 95.5378 101.104 96.5881C101.104 96.8735 101.104 97.1588 101.104 97.4442C101.104 97.7813 101.104 97.9634 101.104 97.5286C101.104 96.8442 101.066 95.9864 101.337 95.342C101.479 95.0044 101.683 94.4383 101.683 94.0759C101.683 93.8921 101.807 93.5609 101.884 93.3886C102.012 93.1004 101.988 92.7482 102.08 92.4521C102.195 92.0854 102.369 91.6911 102.474 91.3226C102.577 90.9641 102.766 90.5605 102.836 90.173C102.887 89.892 103.019 89.3845 103.186 89.1762C103.37 88.9458 103.385 88.5428 103.62 88.308C103.709 88.2194 104.077 87.4736 103.869 87.89C103.717 88.195 103.384 88.637 103.347 88.9752C103.33 89.123 103.197 89.2588 103.13 89.3772C103.061 89.4963 102.913 89.8641 102.913 89.7269C102.913 89.5911 102.946 89.3162 103.001 89.1923C103.053 89.0743 103.057 88.7075 103.057 89.0114C103.057 89.2565 102.685 89.637 102.515 89.8073C102.285 90.0368 102.227 90.3742 102.044 90.6031C101.925 90.7523 101.634 91.3035 101.61 91.5075C101.541 92.097 100.84 92.6545 100.581 93.1715C100.365 93.6042 100.16 94.0601 99.9301 94.4738C99.7232 94.8462 99.4109 95.2982 99.295 95.7038C99.188 96.0783 98.8763 96.3926 98.7162 96.7529C98.5225 97.1888 98.1875 97.6084 98.061 98.0512C97.9203 98.5436 97.4668 99.0906 97.1325 99.462C96.734 99.9048 96.464 100.472 96.0553 100.897C95.7922 101.17 95.694 101.56 95.4444 101.837C95.3716 101.918 95.2158 102.187 95.1309 102.211C95.0416 102.237 94.8015 102.372 95.0263 102.36C95.3384 102.343 95.599 102.088 95.8945 102.071C96.5303 102.033 96.9611 101.084 97.2652 100.628C97.5452 100.208 97.7065 99.8198 98.0289 99.4258C98.6327 98.6878 99.2985 97.9881 99.8417 97.199C99.8478 97.19 100.185 96.7108 100.163 96.8775C100.131 97.1217 99.897 97.3663 99.7532 97.5447C99.2799 98.1323 98.7693 98.69 98.2901 99.2731C97.6212 100.087 96.9982 100.937 96.3086 101.733C96.1372 101.931 96.5449 101.264 96.6944 101.05C97.5607 99.8067 98.5182 98.6267 99.4075 97.4C99.5029 97.2685 100.276 96.265 100.276 96.2746C100.273 96.3815 100.048 96.9619 99.922 96.9619C99.8467 96.9619 99.9209 96.8091 99.9421 96.7368C100.018 96.4791 100.096 96.325 100.223 96.0776C100.493 95.5548 100.777 95.0305 101.08 94.5261C101.321 94.1242 101.474 94.0476 101.261 94.5864C100.948 95.3737 100.517 96.1407 100.035 96.8373C99.8018 97.1735 100.183 96.0707 100.211 96.0093C100.395 95.6089 100.62 95.2306 100.798 94.8276C100.841 94.7318 100.914 94.4699 101.031 94.4176C101.146 94.3665 100.653 95.5649 100.605 95.6556C100.528 95.8032 100.026 96.6899 100.031 96.6202C100.096 95.6026 100.549 94.6492 101.023 93.7664C101.201 93.4365 101.659 92.6817 101.385 93.5976C101.007 94.8623 100.262 96.0985 99.5723 97.2151C99.4877 97.352 99.3057 97.7718 99.1583 97.8823C98.9928 98.0065 99.1926 97.4681 99.2428 97.2674C99.4209 96.5547 99.7875 95.9413 100.131 95.3018C100.252 95.077 100.235 95.2292 100.187 95.3903C100.093 95.7071 99.9183 95.9883 99.7452 96.2665C99.6911 96.3534 99.3508 96.9505 99.3794 96.8172C99.5728 95.9148 100.054 95.0792 100.441 94.2488C100.737 93.6113 100.281 95.08 100.244 95.1652C99.7837 96.201 99.1569 97.1261 98.5876 98.0994C98.5135 98.226 98.6004 97.7993 98.6599 97.6653C98.9913 96.9197 99.4389 96.2266 99.8417 95.5189C100.221 94.8526 101.184 92.8097 101.056 93.5654C100.834 94.8669 99.8995 96.1625 99.2307 97.2714C98.9524 97.7327 98.661 98.1882 98.3464 98.6259C98.277 98.7225 98.1988 98.789 98.2861 98.5978C98.8402 97.3841 99.5526 96.2381 100.219 95.0848C100.454 94.68 100.681 94.2686 100.927 93.8709C101.102 93.5877 100.937 94.1152 100.935 94.1201C100.568 94.9846 99.958 95.8191 99.4156 96.5841C98.8248 97.4172 99.3501 96.2484 99.5121 95.9651C99.6382 95.7443 99.7748 95.5306 99.914 95.3179C99.9169 95.3135 100.141 94.9789 100.147 94.9883C100.226 95.1129 99.9431 95.5442 99.8979 95.6234C99.5382 96.254 99.1071 96.8473 98.668 97.4241C98.4461 97.7155 98.212 97.9966 97.9806 98.2803C97.8363 98.4572 97.7853 98.4974 97.9123 98.228C98.233 97.5481 98.63 96.8567 99.0981 96.2665C100.086 95.0213 97.385 98.9529 96.3769 100.181C96.3234 100.247 96.1533 100.504 96.0593 100.551C95.8732 100.644 96.1793 100.151 96.2724 99.9644C96.55 99.4092 96.9317 98.654 97.3737 98.2119C97.5851 98.0006 97.207 98.7192 97.1888 98.7465C96.9407 99.1186 96.631 99.4634 96.409 99.8519C96.2179 100.186 96.9915 98.462 96.9798 98.847C96.9662 99.2961 96.4879 99.5997 96.397 100.009C96.3287 100.316 96.0482 100.71 95.8624 100.949C95.4807 101.44 94.3134 102.888 94.753 102.448C95.1243 102.077 95.4362 101.629 95.8061 101.259C95.8818 101.183 96.1418 100.727 96.0031 100.804C95.9419 100.838 95.573 101.102 95.6212 100.985C95.7005 100.793 95.9606 100.55 96.1397 100.451C96.2145 100.409 96.1839 100.64 96.1839 100.68C96.1839 100.983 96.5046 100.497 96.61 100.399C97.3082 99.7454 97.9863 99.0692 98.7001 98.433C98.7302 98.4062 99.2813 97.8937 99.1061 98.2441C98.9703 98.5156 98.7108 98.9643 98.4228 99.1083C97.9471 99.3461 97.6031 100.074 97.2531 100.463C97.1267 100.603 97.0042 100.744 96.8673 100.881C96.5241 101.224 96.2371 101.647 95.8624 101.954C95.6586 102.121 95.8898 101.679 95.8945 101.637C95.9342 101.28 96.2842 100.813 96.4774 100.511C97.0181 99.6662 97.3405 98.7234 97.7194 97.8019C97.9933 97.1358 98.3671 96.496 98.6278 95.8324C98.7716 95.4662 98.8364 95.6679 98.7845 95.953C98.7524 96.1296 98.5308 96.3414 98.4429 96.4996C98.2559 96.8363 98.0915 97.2804 97.8319 97.5688C97.6495 97.7716 97.7598 97.6348 97.848 97.4804C97.9661 97.2737 97.9084 97.6371 97.8319 97.7135C97.7671 97.7783 97.3848 98.132 97.4179 97.9828C97.4481 97.8472 97.7119 97.6875 97.7797 97.5407C98.1161 96.8118 98.6419 96.072 99.2227 95.5189C99.3698 95.3788 99.4583 95.295 99.5161 95.0928C99.5786 94.8739 99.9594 94.3239 100.131 94.1523C100.348 93.9351 100.538 93.4307 100.67 93.1354C100.91 92.5947 101.642 90.9783 101.377 91.5075C101.211 91.8399 100.932 92.0794 100.758 92.3757C100.691 92.4899 100.491 92.659 100.457 92.7776C100.421 92.9024 100.373 93.1628 100.272 93.2439C100.139 93.3499 99.9068 93.9094 99.8698 94.0759C99.7927 94.4229 99.4494 95.087 99.2227 95.342C99.0068 95.5849 99.3442 95.1599 99.3995 95.0888C99.5901 94.8438 99.7848 94.5312 99.9301 94.2568C99.9362 94.2453 99.719 94.5417 99.6568 94.6507C99.5982 94.7532 99.4669 94.8405 99.3834 94.924C99.1819 95.1256 99.2417 94.7645 99.3272 94.6547C99.5245 94.401 99.4044 94.8741 99.3513 94.9803C98.9943 95.6942 98.5719 96.3597 98.2821 97.1106C98.0673 97.6673 97.8708 98.3624 97.5787 98.8792C97.2803 99.4071 96.9098 100.038 96.7065 100.608C96.6481 100.771 96.2223 101.564 96.4372 101.564C96.746 101.564 97.0873 101.36 97.3978 101.291C97.4875 101.271 97.7813 101.151 97.8641 101.206C97.975 101.28 97.609 101.285 97.4782 101.311C97.2188 101.362 96.9579 101.405 96.6984 101.456C96.4747 101.499 96.2535 101.574 96.0232 101.564C95.939 101.561 96.4138 101.059 96.4894 100.953C97.286 99.8429 98.2824 98.8032 98.9252 97.5889C98.9341 97.5721 99.1452 97.0653 99.2066 97.1267C99.3108 97.2309 99.1844 97.6636 99.1503 97.7698C98.9294 98.4584 97.9622 100.407 98.258 99.7474C98.5957 98.994 99.1548 98.2839 99.6125 97.601C99.8762 97.2076 100.14 96.8145 100.4 96.4193C100.473 96.309 100.573 96.1147 100.698 96.0454C101.047 95.8513 100.346 96.764 100.147 97.1106C99.7342 97.8294 99.2221 98.458 98.7644 99.1444C97.746 100.672 100.234 95.7761 101.084 94.1483C101.215 93.8956 101.253 93.7651 101.248 94.1201C101.24 94.7803 101.026 95.3395 100.83 95.961C100.65 96.5345 100.676 96.1254 100.75 95.7641C101.006 94.5212 101.755 93.3895 102.289 92.2511C102.315 92.196 102.674 91.529 102.679 91.5396C102.849 91.8787 102.492 92.6179 102.39 92.9143C102.181 93.5197 101.99 94.1602 101.723 94.7431C101.549 95.1219 101.613 94.1484 101.618 94.0719C101.658 93.4652 101.88 92.8411 102.141 92.2953C102.19 92.1916 102.189 92.031 102.189 92.239C102.189 92.674 102.1 93.0663 101.916 93.4609C101.82 93.6651 101.633 94.288 101.61 94.0639C101.52 93.1574 101.945 92.2545 102.225 91.415C102.355 91.0263 102.308 91.6046 102.269 91.7165C101.955 92.6191 101.32 93.3802 100.863 94.2086C100.694 94.5129 100.556 94.8365 100.605 94.2769C100.683 93.4048 101.175 92.5466 101.494 91.7446C101.569 91.5544 102.111 90.0332 101.956 91.001C101.944 91.0784 101.799 91.6463 101.831 91.4673C101.838 91.4304 101.9 91.1709 101.956 91.1779C102.071 91.1922 101.765 91.7766 101.755 91.7969C101.679 91.9493 101.585 92.2962 101.466 92.4159C101.388 92.4938 101.51 92.1946 101.57 92.1024C101.926 91.558 102.35 91.0604 102.535 90.4222C102.756 89.6579 103.086 88.949 103.435 88.2517C103.51 88.1021 103.591 87.9029 103.741 87.8176C103.851 87.7546 103.866 87.4934 103.941 87.3996C103.982 87.3493 104.131 87.0287 104.034 87.2027C103.913 87.4203 103.793 87.637 103.672 87.8538C103.558 88.0596 103.275 88.3962 103.093 88.5411C102.865 88.7237 102.847 89.2014 102.587 89.4093C102.275 89.6589 102.208 90.1863 101.936 90.4584C101.764 90.6302 101.422 91.2054 101.393 91.4351C101.364 91.6665 101.399 91.4043 101.466 91.2543C101.645 90.8515 101.974 90.4775 102.221 90.1168C102.606 89.5547 103.036 89.0384 103.419 88.4849C103.631 88.1785 103.773 87.8644 103.941 87.5282C104.009 87.3939 104.111 87.2196 104.066 87.062C104.023 86.9119 103.733 87.2072 103.712 87.279C103.672 87.4209 103.604 87.5686 103.507 87.689C103.477 87.7265 103.434 87.8766 103.423 87.9262C103.39 88.0766 103.42 87.9182 103.455 87.89C103.575 87.7939 103.708 87.3503 103.708 87.5041C103.708 87.9649 103.294 88.5405 103.146 88.9592C102.735 90.1164 102.078 91.2153 101.666 92.3596C101.499 92.8236 101.307 93.2807 101.144 93.7463C101.008 94.1353 100.975 94.5445 100.818 94.9361C100.494 95.748 102.044 91.7424 102.044 92.6169C102.044 93.384 102.04 94.1445 101.884 94.8999C101.798 95.3153 101.667 95.7212 101.554 96.1299C101.534 96.201 101.512 96.4212 101.449 96.4836C101.42 96.5126 101.405 96.4079 101.409 96.367C101.466 95.801 101.645 95.2312 101.811 94.6909C102.14 93.6195 102.407 92.3173 103.041 91.3668C103.182 91.1561 103.12 91.9925 103.113 92.0702C103.07 92.6219 102.93 93.1187 102.784 93.6458C102.531 94.5559 102.899 91.7314 103.234 90.8483C103.637 89.7866 103.254 93.135 103.033 94.2488C103.013 94.3486 102.862 95.1086 102.856 95.0928C102.623 94.4812 102.938 93.4442 103.057 92.85C103.229 91.9918 103.316 91.1159 103.523 90.2655C103.641 89.7827 103.636 90.1185 103.636 90.3861C103.636 91.1695 103.492 91.8467 103.314 92.6088C103.126 93.4167 103.066 94.3264 102.784 95.1089C102.632 95.5313 102.775 94.2098 102.812 93.7624C102.89 92.8192 103.071 91.8836 103.238 90.9528C103.418 89.9521 103.419 91.3511 103.419 91.5959C103.419 92.3717 103.417 94.6825 103.278 93.9192C103.215 93.5718 103.274 93.1598 103.274 92.8098C103.274 92.1399 103.274 91.47 103.274 90.8001C103.274 90.5943 103.274 89.9522 103.274 90.4986C103.274 91.3753 103.333 92.2699 103.27 93.1434C103.247 93.4714 102.887 94.0432 102.695 94.5462C102.143 95.9957 101.986 97.543 101.518 99.0198C101.499 99.0787 101.4 99.5251 101.393 99.2329C101.381 98.6878 101.457 98.1959 101.61 97.6733C101.74 97.2311 101.868 96.7767 101.968 96.3268C102.085 95.7984 101.989 96.7555 101.964 96.8654C101.83 97.4582 101.551 98.0063 101.321 98.5656C101.293 98.6333 101.104 99.1697 101.104 98.9997C101.104 97.6541 101.457 96.4556 101.823 95.1732C101.891 94.9372 101.782 95.6632 101.739 95.9048C101.627 96.5239 101.369 97.1066 101.12 97.6814C101.06 97.8191 100.954 98.1291 100.959 97.81C100.969 97.1427 101.141 96.5561 101.377 95.9369C101.403 95.868 101.651 95.1083 101.602 95.5591C101.501 96.4987 101.106 97.3908 100.706 98.236C100.482 98.7098 100.288 99.242 100.002 99.6831C99.9394 99.7804 99.9523 99.453 99.9622 99.3374C100.016 98.715 100.202 98.14 100.428 97.5608C100.813 96.5773 101.23 95.6059 101.594 94.6145C101.609 94.5729 101.755 94.0721 101.755 94.3814C101.755 94.9529 101.447 95.4962 101.184 95.9852C100.683 96.9152 100.163 97.8326 99.6005 98.7264C99.5705 98.7741 99.2455 99.4175 99.3151 98.9997C99.3731 98.6518 99.5831 98.3287 99.7452 98.023C100.041 97.4657 100.315 96.9006 100.577 96.3268C100.593 96.2917 101.104 95.3045 101.104 95.5591C101.104 96.1686 100.621 96.8403 100.364 97.3598C99.794 98.5118 99.2729 99.687 98.7685 100.869C98.6431 101.163 98.3545 102.052 98.3545 101.733C98.3545 100.746 98.9609 99.9251 99.4397 99.1043C99.5498 98.9155 99.8015 98.5576 99.8015 98.5576C99.8015 98.5576 99.6167 98.8791 99.5121 99.0319C99.2127 99.4688 98.1203 100.619 98.4067 100.173C98.6923 99.7292 99.9467 98.7607 99.4799 99.0078C99.2368 99.1365 98.9818 99.4318 98.7845 99.6187C98.275 100.101 97.7828 100.608 97.3094 101.126C97.0292 101.433 96.7186 101.719 96.4734 102.055C96.3478 102.226 96.5845 101.845 96.6181 101.797C96.8356 101.488 97.0931 101.562 97.4099 101.452C97.9365 101.267 97.5687 101.409 97.2692 101.476C96.9545 101.546 96.6484 101.545 96.3287 101.564C96.2355 101.57 95.5073 102.013 95.5489 102.055C95.7026 102.208 96.4102 101.998 96.6181 101.998C96.6542 101.998 95.6775 102.068 95.6775 102.143C95.6775 102.423 96.4634 102.162 96.5859 102.107C97.0663 101.888 97.5315 101.672 97.9927 101.403C98.9042 100.873 99.7517 100.25 100.557 99.5705C101.333 98.9164 102.21 98.2247 102.828 97.408C102.861 97.3642 103.209 96.7489 103.186 96.7489C103.127 96.7489 102.86 97.0998 102.768 97.1508C102.452 97.3261 102.208 97.6331 101.94 97.8703C101.801 97.9928 101.321 98.6621 101.144 98.6621C101.022 98.6621 101.347 97.7412 101.361 97.6974C101.663 96.7586 102.029 95.8319 102.374 94.9079C102.518 94.522 102.478 95.0101 102.478 95.1411C102.478 95.5813 102.381 95.9832 102.338 96.4152C102.244 97.3574 102.353 94.5108 102.535 93.5815C102.551 93.4976 102.546 93.4665 102.551 93.5654C102.568 93.928 102.634 94.2888 102.663 94.6507C102.742 95.6314 102.812 96.6127 102.896 97.5929C102.907 97.7179 102.985 98.2168 102.985 97.8019C102.985 97.1838 103.057 96.5713 103.057 95.953C103.057 95.1304 103.057 96.3591 103.057 96.5881C103.057 97.5533 103.024 94.6393 103.238 93.6981C103.267 93.5702 103.274 94.3606 103.274 94.4899C103.274 95.3426 103.231 96.1891 103.061 97.0262C103.016 97.2508 102.95 97.9235 102.913 97.6974C102.821 97.1476 102.909 96.5022 102.913 95.945C102.917 95.2019 103.13 92.9831 103.13 93.7262C103.13 94.3046 103.202 94.9048 103.202 95.4948C103.202 96.2493 103.221 97.0022 103.146 97.7537C103.102 98.1862 103.13 97.9775 103.13 97.6814C103.13 96.2993 103.708 94.9855 103.708 93.6137C103.708 93.3901 103.708 93.638 103.708 93.7101C103.708 94.1898 103.708 94.6695 103.708 95.1491C103.708 95.8351 103.708 97.8931 103.708 97.2071C103.708 96.2638 103.708 95.3206 103.708 94.3774C103.708 93.9831 103.779 93.4848 103.672 93.0992C103.528 92.5788 103.439 91.9882 103.419 91.4512C103.406 91.0986 103.419 90.7427 103.419 90.3901C103.419 89.9707 103.419 89.7296 103.419 90.2816C103.419 90.6048 103.331 91.2303 103.073 91.4593C102.958 91.5617 103.051 91.1508 103.061 90.997C103.082 90.6807 103.138 90.3329 103.238 90.0323C103.372 89.63 103.564 88.3783 103.564 88.8024C103.564 89.2799 103.528 90.6995 103.632 90.2333C103.706 89.9021 103.781 89.535 103.781 89.1923C103.781 88.9893 103.853 88.6626 103.853 89.0637C103.853 89.9255 103.878 90.7908 103.853 91.6522C103.838 92.1658 103.877 92.8827 103.765 93.3886C103.65 93.9037 103.708 93.5247 103.708 93.2037C103.708 92.8071 103.708 92.4105 103.708 92.0139C103.708 91.0567 103.781 90.1112 103.781 89.1561C103.781 89.0021 103.734 88.7552 103.797 88.6135C103.919 88.3389 103.853 88.9368 103.853 89.0516C103.853 90.679 103.459 92.3302 103.166 93.9272C103.006 94.7992 103.019 95.7167 102.804 96.576C102.694 97.0164 102.529 98.3496 102.478 97.8984C102.438 97.5362 102.478 96.4407 102.478 96.8051C102.478 97.0497 102.406 98.1596 102.406 97.3156C102.406 96.8437 102.442 96.3991 102.535 95.9369C102.578 95.7189 102.536 96.6039 102.519 96.7167C102.423 97.3504 102.217 98.0201 102.008 98.6259C101.965 98.7503 101.902 99.1167 101.795 99.2088C101.774 99.2271 101.755 98.7211 101.755 98.7103C101.755 97.5959 101.991 96.5417 102.245 95.4626C102.28 95.3171 102.5 94.0357 102.478 94.7954C102.46 95.4408 102.047 95.9899 101.739 96.5318C101.176 97.5212 100.583 98.5215 100.103 99.5544C100.071 99.6223 99.8536 100.096 99.8738 99.7393C99.9096 99.1066 100.238 98.4943 100.469 97.9145C100.568 97.6636 100.751 96.9426 100.991 96.8051C101.023 96.7869 100.767 97.4297 100.73 97.4884C100.188 98.3382 99.5778 99.1474 99.1543 100.065C99.0778 100.231 99.1579 99.8427 99.1825 99.7956C99.4753 99.2336 99.952 98.7203 100.348 98.228C100.388 98.1779 100.806 97.8277 100.806 97.7698C100.806 97.7186 100.73 97.8386 100.698 97.8783C100.587 98.0144 100.434 98.1067 100.296 98.2119C99.236 99.0207 98.1452 99.7975 97.1004 100.624C96.6963 100.943 97.539 100.691 97.7113 100.66C98.2203 100.569 98.7431 100.667 99.2548 100.608C99.5339 100.575 99.8096 100.518 100.087 100.483C100.362 100.449 99.9689 100.502 99.9019 100.519C98.9356 100.77 97.9691 101.057 96.9959 101.275C96.3254 101.425 96.991 101.347 97.2692 101.347C98.049 101.347 98.8287 101.347 99.6085 101.347C99.879 101.347 100.71 101.347 99.9783 101.347C99.1866 101.347 98.4277 101.507 97.6631 101.709C97.5009 101.752 96.3177 101.998 96.9798 101.998C97.9055 101.998 100.679 101.854 99.7532 101.854C99.3955 101.854 99.0378 101.854 98.68 101.854C97.933 101.854 97.2201 102.215 96.4814 102.215C95.3196 102.215 98.9181 102.379 99.9462 101.837C100.092 101.761 100.33 101.637 100.489 101.637C100.813 101.637 100.796 101.369 100.903 101.114C101.203 100.399 101.384 99.6572 101.646 98.9274C101.688 98.8114 101.755 98.4504 101.755 98.5737C101.755 98.7731 101.776 98.9841 101.715 99.1766C101.599 99.539 101.379 99.9237 101.176 100.246C100.915 100.661 101.031 99.7172 101.031 99.5544C101.031 99.4964 101.031 99.1831 101.031 99.4097C101.031 99.7086 101 99.9663 100.887 100.246C100.807 100.443 100.845 100.32 100.81 100.234C100.776 100.147 100.698 100.383 100.658 100.467C100.539 100.709 100.411 100.945 100.284 101.182C99.9202 101.861 100.309 100.372 100.38 100.206C100.459 100.021 100.589 99.486 100.77 99.3776C100.955 99.2665 100.665 99.797 100.593 100.001C100.579 100.04 100.353 100.331 100.324 100.27C100.214 100.037 100.292 99.4985 100.324 99.249C100.354 99.0136 100.429 98.7378 100.541 98.5254C100.61 98.3956 100.53 98.9853 100.509 99.048C100.379 99.4332 100.168 99.8098 99.9864 100.173C99.9266 100.293 99.7617 100.387 99.7331 100.515C99.6999 100.665 99.6597 100.591 99.6568 100.463C99.6436 99.8842 99.6671 99.2998 99.7452 98.7264C99.8204 98.1737 99.9778 97.6398 100.087 97.0945C100.132 96.8712 100.104 97.551 100.083 97.7778C100.021 98.4397 99.7428 99.108 99.5523 99.7393C99.285 100.625 99.0842 101.524 98.877 102.424C98.8431 102.572 98.7501 103.013 98.7926 102.609C98.8285 102.268 98.9403 101.894 99.0458 101.568C99.2305 100.997 99.6778 100.53 100.091 100.117C100.362 99.8457 100.453 99.8457 100.453 100.226C100.453 100.588 100.712 100.207 100.919 100.266C100.991 100.287 100.104 100.667 99.9864 100.712C99.5808 100.868 99.2214 101.078 98.8328 101.267C98.687 101.338 98.459 101.519 98.3143 101.56C98.0713 101.63 97.7101 101.895 97.4863 102.055C97.3062 102.183 97.103 102.088 96.9436 102.215C96.629 102.467 96.0393 102.288 96.7266 102.288C97.1389 102.288 97.5669 102.215 97.9927 102.215C98.2488 102.215 99.0217 102.215 98.3545 102.215C98.0184 102.215 97.6948 102.095 97.3416 102.272C97.2342 102.325 96.6793 102.48 96.9838 102.251C97.371 101.961 97.7334 101.615 97.9766 101.186C98.7255 99.8677 99.4023 98.5084 100.159 97.195C100.399 96.7784 100.616 96.3283 100.883 95.9289C100.983 95.7782 101.031 95.752 101.031 95.961C101.031 96.4064 101.072 96.841 100.887 97.2553C100.796 97.4587 100.453 98.7698 100.453 97.8663C100.453 97.5642 100.451 96.8668 100.236 97.5125C100.185 97.6642 100.091 97.82 100.091 97.9828C100.091 98.1647 100.022 98.0019 99.9783 98.0391C99.7704 98.2173 99.7205 98.8173 99.6568 99.0721C99.6458 99.116 99.5297 99.6531 99.6005 99.3937C99.6231 99.3107 99.9462 98.6441 99.9462 98.9997C99.9462 99.4765 99.8996 99.9428 99.8738 100.407C99.8454 100.918 100.269 100.795 100.597 100.969C100.878 101.118 100.662 101.253 100.453 101.311C99.9208 101.459 100.158 100.459 100.163 100.117C100.165 99.9774 100.225 98.3682 100.453 98.4692C100.637 98.5509 100.847 98.6754 100.883 98.8912C100.902 99.005 100.887 99.1338 100.887 99.249C100.887 99.5169 100.961 98.8671 100.971 98.8309C101.102 98.3468 101.34 97.9102 101.506 97.4402C101.595 97.1863 101.61 97.2218 101.61 97.4724C101.61 98.4689 101.367 99.4609 101.108 100.419C101.012 100.77 100.882 101.329 100.453 101.114C100.269 101.022 99.9501 101.021 99.7613 101.102C99.187 101.348 98.6856 101.909 98.1052 102.075C97.9785 102.111 96.9973 102.36 97.5586 102.36C98.4011 102.36 99.0068 102.075 99.7693 101.858C100.165 101.745 100.577 101.564 100.991 101.564C101.144 101.564 101.397 101.466 101.538 101.403C101.802 101.286 101.767 101.236 101.843 100.969C102.062 100.204 102.221 99.4152 102.438 98.646C102.471 98.5302 102.502 98.4184 102.551 98.3084C102.578 98.248 102.576 98.0767 102.623 98.1235C102.688 98.1881 102.625 98.6723 102.623 98.7666C102.616 99.0667 102.369 99.3506 102.225 99.6067C101.935 100.123 102.317 98.8479 102.39 98.7023C102.512 98.4577 102.577 98.5175 102.547 98.7706C102.516 99.033 102.371 99.3481 102.229 99.5665C102.039 99.8607 101.936 100.234 101.811 100.559C101.63 101.033 101.277 101.63 101.248 102.143C101.209 102.845 101.453 100.744 101.687 100.081C101.709 100.017 102.133 99.2464 102.245 99.4258C102.396 99.6672 102.334 100.028 102.334 100.298C102.334 100.773 102.577 99.3795 102.695 98.9194C102.863 98.2677 102.84 99.1677 102.84 99.3937C102.84 100.203 102.91 98.7943 102.929 98.6139C102.953 98.3843 102.974 98.0634 103.061 97.8462C103.14 97.6497 103.13 98.2656 103.13 98.4772C103.13 99.0978 103.176 99.7146 103.202 100.334C103.21 100.517 103.339 100.69 103.347 100.407C103.351 100.249 103.347 99.7742 103.347 99.9323C103.347 100.128 103.347 100.323 103.347 100.519C103.347 100.854 103.347 100.668 103.347 100.431C103.347 100.041 103.347 99.6509 103.347 99.261C103.347 98.5412 103.347 99.4524 103.347 99.6831C103.347 101.575 103.458 98.5576 103.491 98.5576C103.515 98.5576 103.689 100.706 103.708 99.2329C103.719 98.3891 103.708 97.5445 103.708 96.7006C103.708 95.8852 103.708 96.5634 103.708 96.9016C103.708 97.6007 103.616 98.1511 103.435 98.8309C103.377 99.0503 103.347 99.2608 103.347 99.4861C103.347 99.6978 103.347 99.0627 103.347 98.851C103.347 98.5362 103.347 97.9065 103.347 97.9065C103.347 97.9065 103.419 98.5621 103.419 98.8912C103.419 99.1793 103.419 99.4673 103.419 99.7554C103.419 100.133 103.531 100.024 103.56 99.679C103.641 98.702 103.517 97.7206 103.62 96.7408C103.648 96.4705 103.74 96.1266 103.6 96.576C103.512 96.8575 103.564 97.2022 103.564 97.4965C103.564 98.011 103.478 98.7667 103.692 99.249C103.755 99.3907 103.708 99.6375 103.708 99.7916C103.708 100.139 103.781 100.475 103.781 100.825C103.781 101.204 103.781 101.583 103.781 101.962C103.781 102.078 103.681 102.338 103.507 102.199C103.373 102.092 103.419 101.898 103.419 101.741C103.419 101.474 103.391 100.949 103.166 100.768C103.064 100.687 102.776 100.071 102.772 100.085C102.716 100.28 102.768 100.565 102.768 100.768C102.768 100.966 102.902 101.083 102.913 101.275C102.927 101.539 103.068 102.319 103.057 102.055C103.045 101.773 103.075 101.08 102.896 100.857C102.483 100.341 102.334 101.327 102.334 101.564C102.334 101.767 102.272 101.926 102.515 101.926C102.598 101.926 103.165 101.967 102.977 101.994C102.624 102.045 102.239 101.991 101.884 101.998C101.614 102.004 101.372 102.113 101.108 102.139C101.064 102.143 100.728 102.143 100.923 102.143C101.109 102.143 101.295 102.143 101.482 102.143C101.587 102.143 102.256 102.143 101.932 102.143C101.013 102.143 100.096 102.143 99.1865 102.143C99.0577 102.143 100.039 102.187 99.9743 102.251C99.8172 102.409 99.4327 102.36 99.2227 102.36C98.8706 102.36 99.1146 102.215 99.3312 102.215C99.6929 102.215 100.055 102.215 100.416 102.215C100.782 102.215 101.149 102.071 101.538 102.071C101.9 102.071 102.261 102.071 102.623 102.071C102.79 102.071 103.012 101.96 103.162 102.002C103.415 102.075 102.994 102.215 102.913 102.215C102.539 102.215 102.205 102.143 101.827 102.143C101.456 102.143 101.125 102.351 100.778 102.428C100.519 102.486 100.561 102.432 100.814 102.432C100.997 102.432 101.163 102.36 101.357 102.36C101.668 102.36 102.261 102.475 102.261 102.034C102.261 101.227 102.623 100.458 102.623 99.6589C102.623 99.4298 102.597 100.129 102.494 100.334C102.408 100.507 102.34 100.649 102.205 100.784C101.964 101.025 101.973 101.393 101.771 101.653C101.584 101.893 102.32 101.326 102.462 101.058C102.571 100.853 102.533 101.304 102.587 101.347C102.707 101.443 102.859 101.481 102.969 101.58C103.122 101.718 103.082 101.778 103.134 101.958C103.156 102.037 103.319 101.985 103.379 102.002C103.415 102.013 103.529 102.117 103.451 102.139C103.031 102.259 102.613 102.001 102.221 101.93C101.11 101.728 100.069 102.22 99.0096 102.396C98.4926 102.482 98.0856 102.36 97.5948 102.36C97.458 102.36 97.0722 102.432 96.9959 102.288C96.8411 101.995 97.2485 101.911 97.4139 101.837C97.8893 101.626 98.2539 100.746 98.5273 100.35C99.0791 99.5512 99.7091 98.8257 100.107 97.9306C100.362 97.3569 100.679 96.8822 100.943 96.3549C101.039 96.1639 101.133 95.9736 101.1 96.3228C101.063 96.7035 100.77 97.0908 100.509 97.3518C100.18 97.6811 99.8823 98.0503 99.5241 98.3727C99.4283 98.4589 99.3466 98.6676 99.3714 98.4451C99.4018 98.1716 99.6082 97.9891 99.7572 97.7738C99.8192 97.6844 99.8473 97.6533 99.9462 97.601C100.069 97.5357 100.097 97.3355 100.179 97.2231C100.552 96.7127 100.951 96.2305 101.349 95.744C101.547 95.5019 101.826 94.8937 101.896 94.5824C102.047 93.9025 102.364 93.1272 102.736 92.5365C102.805 92.426 102.775 92.8394 102.732 92.9183C102.696 92.9827 102.612 93.3893 102.623 93.0831C102.633 92.8217 102.695 92.5709 102.695 92.3033C102.695 91.9526 102.768 92.28 102.768 92.4521C102.768 92.775 102.561 93.1734 102.462 93.477C102.083 94.6429 101.704 95.584 101.112 97.1548C101.067 97.2745 100.286 99.1227 100.179 99.0158C100.053 98.8891 100.262 98.1814 100.232 98.3486C100.139 98.8552 99.5284 99.3158 99.078 99.466" stroke="#9BAC3C" stroke-width="0.5" stroke-linecap="round"/>
<path d="M101.223 101.012C101.223 101.23 101.212 100.962 101.236 100.962C101.349 100.962 101.128 101.182 101.183 101.17C101.244 101.156 101.257 101.092 101.329 101.092C101.394 101.092 101.401 101.156 101.367 101.21C101.319 101.286 101.117 101.328 101.117 101.211C101.117 101.192 101.131 101.075 101.143 101.145C101.167 101.277 101.414 101.472 101.502 101.569C101.666 101.747 101.879 101.886 102.123 101.886C102.386 101.886 102.633 102.064 102.893 102.097C103.138 102.128 103.388 102.164 103.633 102.178C103.674 102.18 103.714 102.213 103.739 102.244C103.761 102.272 103.838 102.257 103.871 102.257C104.068 102.257 103.725 102.284 103.659 102.284C103.462 102.284 103.293 102.326 103.103 102.337C102.937 102.346 102.774 102.433 102.6 102.443C102.309 102.459 102.028 102.449 101.738 102.482C101.321 102.531 100.926 102.496 100.521 102.496C100.436 102.496 99.9762 102.482 100.006 102.378C100.015 102.345 100.181 102.363 100.21 102.363C100.335 102.363 100.442 102.328 100.552 102.265C100.876 102.078 101.181 101.858 101.508 101.675C101.771 101.527 101.996 101.325 102.254 101.173C102.458 101.053 102.629 100.833 102.866 100.774C103.037 100.732 103.233 100.618 103.38 100.524C103.604 100.382 103.66 100.788 103.514 100.854C103.43 100.891 103.359 100.982 103.294 101.045C103.187 101.15 103.063 101.238 102.944 101.33C102.814 101.431 102.76 101.605 102.64 101.701C102.526 101.792 102.466 101.79 102.315 101.739C102.046 101.65 101.769 101.622 101.488 101.622C101.154 101.622 100.838 101.569 100.508 101.53C100.272 101.503 99.985 101.486 99.7543 101.547C99.4972 101.614 99.2705 101.826 98.9981 101.834C98.7088 101.841 98.4529 101.891 98.1697 101.95C98.0201 101.981 97.8793 102.033 97.7297 102.051C97.3489 102.098 96.9999 102.21 96.635 102.321C96.5708 102.34 96.4645 102.386 96.4026 102.39C96.1357 102.405 95.879 102.478 95.6139 102.516C95.5476 102.526 95.4167 102.552 95.4638 102.444C95.4899 102.385 95.5133 102.337 95.5816 102.337C95.6062 102.337 95.7043 102.323 95.7125 102.351C95.7174 102.368 95.7084 102.421 95.714 102.404C95.7679 102.243 95.8411 102.097 95.9229 101.945C96.5112 100.857 97.2133 99.7786 97.9975 98.8202C98.0345 98.775 98.0529 98.6937 98.077 98.6421C98.235 98.3034 98.4039 97.9712 98.5655 97.6342C98.7985 97.1481 99.0187 96.6552 99.2099 96.1511C99.3995 95.6514 99.5499 95.1669 99.6469 94.643C99.6845 94.4402 99.7681 93.8278 99.7249 94.0294C99.6797 94.2404 99.6107 94.4374 99.5145 94.6297C99.46 94.7388 99.4001 94.8411 99.3424 94.9475C99.3092 95.0086 99.24 95.042 99.2099 95.0947C99.1645 95.1742 99.0932 95.2062 99.051 95.2801C98.9857 95.3944 98.9455 95.4517 99.0643 95.3065C99.1339 95.2214 99.2066 95.1402 99.2953 95.0741C99.7215 94.7561 100.073 94.3436 100.4 93.9279C100.659 93.5989 100.882 93.1791 101.208 92.9097C101.422 92.7324 101.664 92.6399 101.938 92.5904C102.121 92.5572 102.293 92.5374 102.479 92.5374C102.563 92.5374 102.687 92.1881 102.724 92.1107C102.841 91.8605 102.877 91.7874 102.832 91.531C102.804 91.364 102.785 91.227 102.785 91.0543C102.785 90.9567 102.836 91.0259 102.852 91.0808C102.903 91.267 102.903 91.4754 102.918 91.6664C102.971 92.3472 103.115 93.1134 102.924 93.7822C102.577 94.9967 102.4 96.2434 102.123 97.4724C102.024 97.9121 101.735 98.3158 101.488 98.6833C101.283 98.9862 101.081 99.2945 100.905 99.6147C100.773 99.8541 100.599 100.06 100.412 100.259C100.278 100.402 100.106 100.53 99.9898 100.689C99.8954 100.818 99.8775 101.007 99.772 101.124C99.664 101.244 99.5674 101.375 99.4483 101.488C99.3768 101.555 99.2928 101.607 99.2217 101.675C99.1094 101.781 98.8907 101.747 98.745 101.772C98.322 101.843 97.9067 101.965 97.4884 102.059C97.2396 102.115 96.9791 102.093 96.7322 102.151C96.5671 102.19 96.4164 102.231 96.2437 102.231C96.0377 102.231 96.4005 101.978 96.4555 101.939C96.7286 101.746 96.9628 101.466 97.1942 101.226C97.3332 101.082 97.4535 100.912 97.6209 100.801" stroke="#9BAC3C" stroke-width="0.5" stroke-linecap="round"/>
<line x1="132.506" y1="40" x2="132.506" y2="103" stroke="#9BAC3C"/>
<line x1="132" y1="40.1364" x2="156.011" y2="40.1364" stroke="#9BAC3C"/>
<line x1="155.506" y1="40" x2="155.506" y2="73" stroke="#9BAC3C"/>
<line x1="132.609" y1="102.696" x2="155.609" y2="72.6958" stroke="#9BAC3C"/>
<rect x="133" y="40" width="22" height="33" fill="#9BAC3C"/>
<path d="M133.522 73.2516C133.522 75.6551 133.522 78.0586 133.522 80.4621C133.522 81.7564 133.424 83.1072 133.613 84.3828C133.781 85.5207 133.705 86.6604 133.745 87.8128C133.775 88.6968 133.893 89.5485 133.893 90.4307C133.893 91.5472 133.967 92.7374 133.967 93.8773C133.967 95.3989 133.893 96.9039 133.893 98.4081" stroke="#9BAC3C" stroke-width="3" stroke-linecap="round"/>
<path d="M135.377 72.8805C135.377 75.1012 135.6 77.2986 135.678 79.518C135.717 80.6198 135.823 81.7197 135.823 82.8244C135.823 83.5901 135.748 84.3565 135.748 85.1166C135.748 86.8783 135.748 88.6401 135.748 90.4019C135.748 91.7597 135.6 93.0661 135.6 94.4173C135.6 94.7487 135.774 96.5028 135.526 96.6271" stroke="#9BAC3C" stroke-width="3" stroke-linecap="round"/>
<path d="M138.865 72.5837C138.656 72.6621 138.791 73.8216 138.791 73.9936C138.791 74.8924 138.791 75.7911 138.791 76.6899C138.791 77.8674 138.882 79.0864 138.774 80.2601C138.746 80.566 138.712 80.8604 138.647 81.1547C138.609 81.3241 138.596 80.7945 138.568 80.6889C138.281 79.5772 137.81 78.5099 137.344 77.4567C136.889 76.4298 135.795 74.4561 136.713 73.334C136.936 73.0612 137.159 72.6538 137.422 72.9918C137.661 73.2984 138.315 73.2906 138.642 73.3093C139.779 73.374 140.963 73.3743 142.097 73.268C143.634 73.124 145.253 72.8814 146.731 72.4353C147.851 72.0971 149.17 72.2126 150.326 72.2126C151.379 72.2126 152.431 72.2126 153.484 72.2126" stroke="#9BAC3C" stroke-width="3" stroke-linecap="round"/>
<path d="M138.346 85.9411C138.681 85.7133 138.872 85.3497 139.104 85.0176C139.993 83.7484 140.848 82.4667 141.751 81.2083C143.013 79.4496 144.173 77.6079 145.288 75.7622C145.525 75.3701 145.761 74.9793 146.018 74.5996C146.032 74.5795 146.265 74.2245 146.236 74.2245C146.062 74.2245 145.869 74.5323 145.75 74.6285C144.965 75.2609 144.26 75.9197 143.54 76.6321C142.132 78.0264 140.572 79.2625 139.253 80.7466C139.02 81.0084 138.8 81.2862 138.585 81.5628C138.543 81.6162 138.378 81.8537 138.469 81.6453C138.778 80.9432 139.191 80.2843 139.545 79.6046C140.238 78.2751 140.873 76.9223 141.516 75.5685C141.842 74.8819 142.214 74.2189 142.53 73.5278C142.626 73.3183 142.757 72.893 142.963 72.7486C143.145 72.6209 143.006 73.1998 142.955 73.4164C142.703 74.4852 142.233 75.5073 141.891 76.5497C141.119 78.9042 140.557 81.3367 139.694 83.6572C139.687 83.6757 139.55 84.1131 139.537 84.02C139.437 83.2681 139.559 82.41 139.665 81.67C139.914 79.9353 140.231 78.2155 140.452 76.4755C140.531 75.8599 140.805 74.9166 140.646 74.2822C140.626 74.2006 140.621 74.4491 140.597 74.5296C140.531 74.7439 140.433 74.9486 140.349 75.1562C140.067 75.8586 139.76 76.548 139.459 77.2423C138.793 78.7761 138.357 80.3129 137.938 81.9256C137.875 82.1659 137.562 83.0343 137.715 82.3008C137.784 81.9708 137.856 81.4438 137.822 82.1359C137.75 83.6107 137.379 85.0618 137.311 86.543C137.281 87.1952 137.281 87.8612 137.195 88.5095C137.127 89.0326 137.599 87.8957 137.653 87.8046C138.426 86.5073 139.313 85.2764 140.184 84.0447C140.764 83.2265 141.303 82.3335 142.007 81.6123C142.132 81.4833 142.408 81.182 142.336 81.5711C142.121 82.7353 141.365 83.8884 140.91 84.9764C140.436 86.1085 139.914 87.2224 139.467 88.3653C139.454 88.3995 139.285 88.8004 139.409 88.3735C139.648 87.5524 140.026 86.7771 140.415 86.0195C142.147 82.6448 144.153 79.4007 146.117 76.158C146.575 75.402 147.041 74.6514 147.498 73.8947C147.678 73.597 147.852 73.1494 148.125 72.9135C148.247 72.8078 147.732 73.9751 147.704 74.0266C146.942 75.4434 146.023 76.782 145.165 78.141C144.74 78.8129 144.248 79.4617 143.87 80.1611C143.489 80.8651 144.706 78.7913 145.206 78.1658C145.646 77.614 146.102 76.8915 146.645 76.4301C146.804 76.2943 146.693 76.558 146.673 76.5991C146.402 77.182 146.025 77.7231 145.659 78.2482C144.604 79.7625 143.442 81.1999 142.32 82.6636C141.889 83.2259 140.731 84.9945 141.025 84.3498C141.551 83.1972 142.378 82.1557 143.144 81.1588C143.964 80.0926 144.771 78.9923 145.643 77.9679C145.654 77.955 146.115 77.4604 146.105 77.5309C146.035 78.0196 145.329 78.605 145.053 78.982C143.365 81.2865 141.895 83.7132 140.085 85.9246C139.447 86.7044 138.664 87.3509 138.049 88.1674C137.401 89.0271 136.95 89.9321 136.457 90.8718C136.393 90.9944 136.205 91.1877 136.309 91.3212C136.417 91.4594 136.548 91.6465 136.622 91.8036C136.734 92.0387 136.639 92.5416 136.639 92.8054C136.639 93.0046 136.625 93.4539 136.507 93.6011C136.482 93.6319 136.493 93.7657 136.548 93.7165C136.6 93.6702 136.609 93.5788 136.655 93.5268C136.772 93.3971 136.807 93.2315 136.969 93.1393C137.304 92.9477 137.457 92.4112 137.768 92.1746C138.077 91.9401 138.344 91.5105 138.531 91.1728C138.923 90.4683 139.65 89.9083 139.978 89.1692C140.072 88.9571 140.404 88.5677 140.572 88.39C140.857 88.0878 141.055 87.7587 141.351 87.4624C142.417 86.3969 143.26 85.1506 144.175 83.9746C145.097 82.7887 146.065 81.6667 146.748 80.3013C146.893 80.0114 147.077 79.7666 147.218 79.485C147.489 78.9414 147.869 78.2965 148.29 77.8524C148.636 77.4871 148.899 77.0211 149.217 76.6321C149.514 76.2697 149.811 75.9244 150.071 75.5355C150.282 75.2186 150.439 74.8251 150.722 74.5708C150.967 74.3506 151.285 74.1891 151.518 73.9565C151.878 73.5966 152.337 73.3307 152.668 72.9176C152.835 72.7092 152.982 72.459 153.171 72.2703C153.226 72.2147 153.082 72.5389 153.055 72.5837C152.995 72.6863 152.874 72.7461 152.816 72.8475C152.728 73.0014 152.305 73.445 152.148 73.5319C151.855 73.6948 151.717 74.1399 151.513 74.4018C150.814 75.3011 150.119 76.2656 149.535 77.2588C149.325 77.6155 148.958 77.9317 148.702 78.2606C148.551 78.4542 148.447 78.7009 148.273 78.8749C147.821 79.3272 147.477 79.9445 147.086 80.4332C146.688 80.9302 146.497 81.6351 146.08 82.0988C145.631 82.5971 145.361 83.4234 145.082 84.0117C144.878 84.4431 144.58 84.9017 144.245 85.2361C144.014 85.4673 143.692 85.7462 143.524 86.0153C143.418 86.1842 143.058 86.4155 142.905 86.5678C142.755 86.7185 142.541 86.96 142.353 87.0542" stroke="#9BAC3C" stroke-width="3" stroke-linecap="round"/>
<path d="M142.204 87.2769C141.867 87.3144 141.393 87.8187 141.137 88.019C140.962 88.1553 140.901 88.4236 140.757 88.5384C140.61 88.6565 140.308 88.9862 140.201 89.1733C140.039 89.4568 139.722 89.6373 139.57 89.9113C139.404 90.2094 139.137 90.5667 138.902 90.8018C138.535 91.169 138.205 91.6026 137.9 92.0427C137.666 92.3808 137.436 92.691 137.249 93.0651C136.966 93.6312 136.55 94.1326 136.268 94.6977" stroke="#9BAC3C" stroke-width="3" stroke-linecap="round"/>
<path d="M141.918 89.4041C141.79 89.5317 141.681 89.6831 141.55 89.8044C141.474 89.8747 141.405 89.966 141.334 90.0412C141.202 90.1801 141.056 90.3188 140.927 90.4643C140.763 90.65 140.593 90.8338 140.414 91.0052C140.225 91.1862 140.084 91.4028 139.915 91.599C139.818 91.7122 139.73 91.8298 139.635 91.9452C139.618 91.9663 139.594 91.9894 139.581 92.0126C139.539 92.0866 139.635 92.0541 139.599 92.1279C139.562 92.2038 139.488 92.2665 139.434 92.3299C139.341 92.4404 139.261 92.5592 139.18 92.6785C139.101 92.7936 139.01 92.8977 138.932 93.0127C138.885 93.0821 138.826 93.1445 138.776 93.2122C138.571 93.4844 138.378 93.7645 138.175 94.0356C138.015 94.2489 137.899 94.484 137.72 94.6835C137.64 94.7736 137.59 94.9326 137.482 94.9864" stroke="#9BAC3C" stroke-linecap="round"/>
<path d="M141.723 88.993C141.907 88.993 142.077 88.9207 142.21 88.7874C142.266 88.7312 142.333 88.6771 142.382 88.6143C142.402 88.5884 142.39 88.5564 142.395 88.5266C142.405 88.4697 142.463 88.4395 142.48 88.3871" stroke="#9BAC3C" stroke-linecap="round"/>
<path d="M147.673 81.7446C147.895 81.7224 148.102 81.4206 148.236 81.2685C148.409 81.071 148.598 80.8634 148.742 80.6423C148.776 80.5902 148.804 80.5581 148.846 80.5161C148.958 80.4046 149.015 80.1945 149.101 80.0605C149.272 79.7947 149.461 79.4977 149.681 79.2731C149.821 79.1294 149.939 78.9539 150.074 78.8031C150.194 78.6682 150.299 78.5196 150.4 78.3692C150.527 78.1773 150.683 78.0094 150.811 77.8174C150.976 77.5699 151.148 77.3248 151.319 77.0818C151.479 76.855 151.669 76.6707 151.849 76.4603C151.957 76.3345 152.033 76.1949 152.151 76.0769C152.202 76.026 152.253 75.9751 152.304 75.9242" stroke="#9BAC3C" stroke-linecap="round"/>
<path d="M152.304 75.816C152.304 75.7435 152.347 75.6867 152.39 75.6309C152.489 75.5019 152.584 75.3696 152.683 75.2414C152.834 75.0476 152.967 74.806 153.146 74.638C153.279 74.5131 153.392 74.3351 153.515 74.1944C153.626 74.0684 153.74 73.9086 153.818 73.7605C153.872 73.6584 153.939 73.5754 154.013 73.4888C154.064 73.4293 154.153 73.373 154.186 73.3061" stroke="#9BAC3C" stroke-linecap="round"/>
<path d="M133.784 99.5713C133.725 99.5713 133.672 99.573 133.639 99.6304C133.579 99.7372 133.493 99.8218 133.406 99.9085C133.285 100.03 133.202 100.108 133.151 100.263C133.116 100.368 133.069 100.471 133.051 100.577C133.044 100.619 133.056 100.662 133.049 100.703C133.041 100.747 133.011 100.793 133.011 100.837C133.011 100.858 133.148 100.701 133.189 100.673C133.341 100.571 133.47 100.395 133.572 100.244C133.689 100.068 133.814 99.897 133.938 99.7259C134.127 99.4653 134.341 99.2211 134.536 98.9635C134.743 98.6903 134.936 98.4114 135.161 98.1518C135.438 97.8322 135.624 97.4325 135.89 97.1005C136.08 96.8634 136.317 96.6511 136.52 96.4251C136.831 96.0798 137.105 95.7051 137.39 95.3384C137.587 95.0849 137.754 94.8043 137.912 94.5256C137.964 94.4336 138.014 94.3407 138.066 94.2485C138.082 94.2193 138.149 94.1697 138.116 94.1615C138.108 94.1596 138.102 94.169 138.096 94.1733C138.057 94.1989 137.966 94.2654 137.94 94.285C137.558 94.5722 137.243 94.9395 136.88 95.2493C136.342 95.709 135.837 96.1868 135.352 96.7043C135.281 96.7796 135.064 97 135.135 96.9255C135.324 96.7285 135.513 96.5314 135.7 96.3327C135.974 96.042 136.248 95.7511 136.52 95.4587C136.611 95.3608 136.689 95.2576 136.761 95.1451" stroke="#9BAC3C" stroke-linecap="round"/>
<line x1="127.505" y1="63" x2="127.505" stroke="#828282"/>
<line x1="128.011" y1="62.8636" x2="104" y2="62.8636" stroke="#828282"/>
<line x1="104.505" y1="63" x2="104.505" y2="30" stroke="#828282"/>
<line x1="127.402" y1="0.304216" x2="104.402" y2="30.3042" stroke="#828282"/>
<rect x="126.511" y="62.5" width="21" height="32" transform="rotate(180 126.511 62.5)" fill="#828282" stroke="#828282"/>
<path d="M126.489 29.7484C126.489 27.3449 126.489 24.9414 126.489 22.5379C126.489 21.2436 126.587 19.8928 126.398 18.6172C126.23 17.4793 126.306 16.3396 126.266 15.1872C126.236 14.3032 126.118 13.4515 126.118 12.5693C126.118 11.4528 126.044 10.2626 126.044 9.12271C126.044 7.60108 126.118 6.09605 126.118 4.59189" stroke="#828282" stroke-width="3" stroke-linecap="round"/>
<path d="M124.634 30.1195C124.634 27.8988 124.411 25.7014 124.333 23.482C124.294 22.3802 124.188 21.2803 124.188 20.1756C124.188 19.4099 124.263 18.6435 124.263 17.8834C124.263 16.1217 124.263 14.3599 124.263 12.5981C124.263 11.2403 124.411 9.93393 124.411 8.58266C124.411 8.25131 124.237 6.49721 124.485 6.3729" stroke="#828282" stroke-width="3" stroke-linecap="round"/>
<path d="M121.146 30.4163C121.355 30.3379 121.22 29.1784 121.22 29.0064C121.22 28.1076 121.22 27.2089 121.22 26.3101C121.22 25.1326 121.129 23.9136 121.237 22.7399C121.265 22.434 121.299 22.1396 121.364 21.8453C121.402 21.6759 121.416 22.2055 121.443 22.3111C121.73 23.4228 122.201 24.4901 122.667 25.5433C123.122 26.5702 124.216 28.5439 123.298 29.666C123.075 29.9388 122.852 30.3462 122.589 30.0082C122.35 29.7016 121.696 29.7094 121.369 29.6907C120.232 29.626 119.048 29.6257 117.914 29.732C116.377 29.876 114.758 30.1186 113.28 30.5647C112.16 30.9029 110.841 30.7874 109.685 30.7874C108.632 30.7874 107.58 30.7874 106.527 30.7874" stroke="#828282" stroke-width="3" stroke-linecap="round"/>
<path d="M121.665 17.0589C121.33 17.2867 121.139 17.6503 120.907 17.9824C120.018 19.2516 119.163 20.5333 118.26 21.7917C116.998 23.5504 115.838 25.3921 114.723 27.2378C114.486 27.6299 114.25 28.0207 113.993 28.4004C113.979 28.4205 113.746 28.7755 113.775 28.7755C113.949 28.7755 114.142 28.4677 114.261 28.3715C115.046 27.7391 115.751 27.0803 116.471 26.3679C117.879 24.9736 119.439 23.7375 120.758 22.2534C120.991 21.9916 121.211 21.7138 121.426 21.4372C121.468 21.3838 121.633 21.1463 121.542 21.3547C121.233 22.0568 120.82 22.7157 120.466 23.3954C119.773 24.7249 119.138 26.0777 118.495 27.4315C118.169 28.1181 117.797 28.7811 117.481 29.4722C117.385 29.6817 117.254 30.107 117.048 30.2514C116.866 30.3791 117.005 29.8002 117.056 29.5836C117.308 28.5148 117.778 27.4927 118.12 26.4503C118.892 24.0958 119.454 21.6633 120.317 19.3428C120.324 19.3243 120.461 18.8869 120.474 18.98C120.574 19.7319 120.452 20.59 120.346 21.33C120.097 23.0647 119.78 24.7845 119.559 26.5245C119.48 27.1401 119.206 28.0834 119.365 28.7178C119.385 28.7994 119.39 28.5509 119.414 28.4704C119.48 28.2561 119.578 28.0514 119.662 27.8438C119.944 27.1414 120.251 26.452 120.552 25.7577C121.218 24.2239 121.654 22.6871 122.074 21.0744C122.136 20.8341 122.449 19.9657 122.296 20.6992C122.227 21.0292 122.155 21.5562 122.189 20.8641C122.261 19.3893 122.632 17.9382 122.7 16.457C122.73 15.8048 122.73 15.1388 122.816 14.4905C122.884 13.9674 122.412 15.1043 122.358 15.1954C121.585 16.4927 120.698 17.7236 119.827 18.9553C119.247 19.7735 118.708 20.6665 118.004 21.3877C117.879 21.5167 117.603 21.818 117.675 21.4289C117.89 20.2647 118.646 19.1116 119.101 18.0236C119.575 16.8915 120.097 15.7776 120.544 14.6347C120.557 14.6005 120.726 14.1996 120.602 14.6265C120.363 15.4476 119.985 16.2229 119.596 16.9805C117.864 20.3552 115.858 23.5993 113.894 26.842C113.436 27.598 112.97 28.3486 112.513 29.1053C112.333 29.403 112.159 29.8506 111.886 30.0865C111.764 30.1922 112.279 29.0249 112.307 28.9734C113.069 27.5566 113.988 26.218 114.846 24.859C115.271 24.1871 115.763 23.5383 116.141 22.8389C116.522 22.1349 115.305 24.2087 114.805 24.8342C114.365 25.386 113.909 26.1085 113.366 26.5699C113.207 26.7057 113.318 26.442 113.338 26.4009C113.609 25.818 113.986 25.2769 114.352 24.7518C115.407 23.2375 116.569 21.8001 117.691 20.3364C118.122 19.7741 119.28 18.0055 118.986 18.6502C118.46 19.8028 117.633 20.8443 116.867 21.8412C116.047 22.9074 115.24 24.0077 114.368 25.0321C114.357 25.045 113.896 25.5396 113.906 25.4691C113.976 24.9804 114.682 24.395 114.958 24.018C116.646 21.7135 118.116 19.2868 119.926 17.0754C120.564 16.2956 121.347 15.6491 121.962 14.8326C122.61 13.9729 123.061 13.0679 123.554 12.1282C123.618 12.0056 123.806 11.8123 123.702 11.6788C123.594 11.5406 123.463 11.3535 123.389 11.1964C123.277 10.9613 123.372 10.4584 123.372 10.1946C123.372 9.9954 123.386 9.54611 123.504 9.39895C123.529 9.36814 123.518 9.23435 123.463 9.28351C123.411 9.32981 123.402 9.42117 123.356 9.47316C123.239 9.60289 123.204 9.76847 123.042 9.86069C122.707 10.0523 122.554 10.5888 122.243 10.8254C121.934 11.0599 121.667 11.4895 121.48 11.8272C121.088 12.5317 120.361 13.0917 120.033 13.8308C119.939 14.0429 119.607 14.4323 119.439 14.61C119.154 14.9122 118.956 15.2413 118.66 15.5376C117.594 16.6031 116.751 17.8494 115.836 19.0254C114.914 20.2113 113.946 21.3333 113.263 22.6987C113.118 22.9886 112.934 23.2334 112.793 23.515C112.522 24.0586 112.142 24.7035 111.721 25.1476C111.375 25.5129 111.112 25.9789 110.794 26.3679C110.497 26.7303 110.2 27.0756 109.94 27.4645C109.729 27.7814 109.572 28.1749 109.289 28.4292C109.044 28.6494 108.726 28.8109 108.493 29.0435C108.133 29.4034 107.674 29.6693 107.343 30.0824C107.176 30.2908 107.029 30.541 106.84 30.7297C106.785 30.7853 106.929 30.4611 106.956 30.4163C107.016 30.3137 107.137 30.2539 107.195 30.1525C107.283 29.9986 107.706 29.555 107.863 29.4681C108.156 29.3052 108.294 28.8601 108.498 28.5982C109.197 27.6989 109.892 26.7344 110.476 25.7412C110.686 25.3845 111.053 25.0683 111.309 24.7394C111.46 24.5458 111.564 24.2991 111.738 24.1251C112.19 23.6728 112.534 23.0555 112.925 22.5668C113.323 22.0698 113.514 21.3649 113.931 20.9012C114.38 20.4029 114.65 19.5766 114.929 18.9883C115.133 18.5569 115.431 18.0983 115.766 17.7639C115.997 17.5327 116.319 17.2538 116.487 16.9847C116.593 16.8158 116.953 16.5845 117.106 16.4322C117.256 16.2815 117.47 16.04 117.658 15.9458" stroke="#828282" stroke-width="3" stroke-linecap="round"/>
<path d="M117.807 15.7231C118.144 15.6856 118.618 15.1813 118.874 14.981C119.049 14.8447 119.11 14.5764 119.254 14.4616C119.401 14.3435 119.703 14.0138 119.81 13.8267C119.972 13.5432 120.289 13.3627 120.441 13.0887C120.607 12.7906 120.874 12.4333 121.109 12.1982C121.476 11.831 121.806 11.3974 122.111 10.9573C122.345 10.6192 122.575 10.309 122.762 9.93488C123.045 9.36882 123.461 8.86739 123.743 8.3023" stroke="#828282" stroke-width="3" stroke-linecap="round"/>
<path d="M118.093 13.5959C118.221 13.4683 118.33 13.3169 118.461 13.1956C118.537 13.1253 118.606 13.034 118.677 12.9588C118.809 12.8199 118.955 12.6812 119.084 12.5357C119.248 12.35 119.418 12.1662 119.597 11.9948C119.786 11.8138 119.927 11.5972 120.096 11.401C120.193 11.2878 120.281 11.1702 120.376 11.0548C120.393 11.0337 120.417 11.0106 120.43 10.9874C120.472 10.9134 120.376 10.9459 120.412 10.8721C120.449 10.7962 120.523 10.7335 120.577 10.6701C120.67 10.5596 120.75 10.4408 120.831 10.3215C120.91 10.2064 121.001 10.1023 121.079 9.98734C121.126 9.91788 121.185 9.85545 121.235 9.78779C121.44 9.51559 121.633 9.2355 121.836 8.96438C121.996 8.7511 122.112 8.516 122.291 8.31647C122.371 8.22637 122.421 8.06744 122.529 8.01355" stroke="#828282" stroke-linecap="round"/>
<path d="M118.288 14.007C118.104 14.007 117.934 14.0793 117.801 14.2126C117.745 14.2688 117.678 14.3229 117.629 14.3857C117.609 14.4116 117.621 14.4436 117.616 14.4734C117.606 14.5303 117.548 14.5605 117.531 14.6129" stroke="#828282" stroke-linecap="round"/>
<path d="M112.338 21.2554C112.116 21.2776 111.909 21.5794 111.775 21.7315C111.602 21.929 111.413 22.1366 111.269 22.3577C111.235 22.4098 111.207 22.4419 111.165 22.4839C111.053 22.5954 110.996 22.8055 110.91 22.9395C110.739 23.2053 110.55 23.5023 110.33 23.7269C110.19 23.8706 110.072 24.0461 109.937 24.1969C109.817 24.3318 109.712 24.4804 109.611 24.6308C109.484 24.8227 109.328 24.9906 109.2 25.1826C109.035 25.4301 108.863 25.6752 108.692 25.9182C108.532 26.145 108.342 26.3293 108.162 26.5397C108.054 26.6655 107.978 26.8051 107.86 26.9231C107.809 26.974 107.758 27.0249 107.707 27.0758" stroke="#828282" stroke-linecap="round"/>
<path d="M107.707 27.184C107.707 27.2565 107.664 27.3133 107.621 27.3691C107.522 27.4981 107.427 27.6304 107.328 27.7586C107.177 27.9524 107.044 28.194 106.865 28.362C106.732 28.4869 106.619 28.6649 106.496 28.8056C106.385 28.9316 106.271 29.0914 106.193 29.2395C106.139 29.3416 106.072 29.4246 105.998 29.5112C105.947 29.5707 105.858 29.627 105.825 29.6939" stroke="#828282" stroke-linecap="round"/>
<path d="M126.227 3.42869C126.286 3.42869 126.339 3.42703 126.372 3.36963C126.432 3.26278 126.518 3.1782 126.605 3.09152C126.726 2.97034 126.809 2.89194 126.86 2.73717C126.895 2.63215 126.942 2.52857 126.96 2.42254C126.967 2.38144 126.955 2.33789 126.962 2.29691C126.97 2.25295 127 2.20653 127 2.16269C127 2.14237 126.863 2.29867 126.822 2.32698C126.67 2.42947 126.541 2.60452 126.439 2.75649C126.322 2.93183 126.197 3.10302 126.073 3.27406C125.884 3.53466 125.67 3.77888 125.475 4.03646C125.268 4.30972 125.075 4.5886 124.85 4.84824C124.573 5.16784 124.387 5.56751 124.121 5.89949C123.931 6.13658 123.694 6.3489 123.491 6.5749C123.18 6.92024 122.906 7.29492 122.621 7.66158C122.424 7.91513 122.257 8.19575 122.099 8.47445C122.047 8.56637 121.997 8.65935 121.945 8.75148C121.929 8.78072 121.862 8.83033 121.895 8.83846C121.903 8.84037 121.909 8.83101 121.915 8.82665C121.954 8.80106 122.045 8.73458 122.071 8.71498C122.453 8.42776 122.768 8.06052 123.131 7.75071C123.669 7.29104 124.174 6.81318 124.659 6.29572C124.73 6.22036 124.947 5.99996 124.876 6.07452C124.687 6.27152 124.498 6.46863 124.311 6.66725C124.037 6.95804 123.763 7.24886 123.491 7.54132C123.4 7.63922 123.322 7.74239 123.25 7.85487" stroke="#828282" stroke-linecap="round"/>
<path d="M4 111.5L156 111.5" stroke="#9BAC3C"/>
<path d="M4.52881 122V116.182H8.44926V117.196H5.75892V118.582H8.24756V119.597H5.75892V120.986H8.46062V122H4.52881ZM10.5904 116.182L11.9966 120.602H12.0506L13.4597 116.182H14.8233L12.8177 122H11.2324L9.2239 116.182H10.5904ZM15.6356 122V116.182H19.5561V117.196H16.8657V118.582H19.3544V119.597H16.8657V120.986H19.5674V122H15.6356ZM25.5125 116.182V122H24.45L21.9188 118.338H21.8762V122H20.6461V116.182H21.7256L24.237 119.841H24.2881V116.182H25.5125ZM26.4193 117.196V116.182H31.1977V117.196H29.4164V122H28.2005V117.196H26.4193ZM35.2529 117.855C35.2301 117.626 35.1326 117.448 34.9603 117.321C34.7879 117.194 34.554 117.131 34.2586 117.131C34.0578 117.131 33.8883 117.159 33.75 117.216C33.6118 117.271 33.5057 117.348 33.4318 117.446C33.3599 117.545 33.3239 117.656 33.3239 117.781C33.3201 117.885 33.3419 117.976 33.3892 118.054C33.4385 118.132 33.5057 118.199 33.5909 118.256C33.6762 118.311 33.7746 118.359 33.8864 118.401C33.9981 118.44 34.1175 118.474 34.2443 118.503L34.7671 118.628C35.0209 118.685 35.2538 118.76 35.4659 118.855C35.6781 118.95 35.8618 119.066 36.0171 119.205C36.1724 119.343 36.2926 119.506 36.3779 119.693C36.465 119.881 36.5095 120.096 36.5114 120.338C36.5095 120.694 36.4186 121.003 36.2387 121.264C36.0606 121.524 35.8031 121.725 35.4659 121.869C35.1307 122.011 34.7264 122.082 34.2529 122.082C33.7832 122.082 33.3741 122.01 33.0256 121.866C32.679 121.723 32.4082 121.509 32.2131 121.227C32.0199 120.943 31.9186 120.592 31.9091 120.173H33.0995C33.1127 120.368 33.1686 120.531 33.2671 120.662C33.3675 120.791 33.501 120.888 33.6676 120.955C33.8362 121.019 34.0265 121.051 34.2387 121.051C34.447 121.051 34.6279 121.021 34.7813 120.96C34.9366 120.9 35.0568 120.815 35.1421 120.707C35.2273 120.599 35.2699 120.475 35.2699 120.335C35.2699 120.205 35.2311 120.095 35.1534 120.006C35.0777 119.917 34.9659 119.841 34.8182 119.778C34.6724 119.716 34.4934 119.659 34.2813 119.608L33.6478 119.449C33.1572 119.33 32.7699 119.143 32.4858 118.889C32.2017 118.635 32.0606 118.294 32.0625 117.864C32.0606 117.511 32.1544 117.204 32.3438 116.94C32.5351 116.677 32.7974 116.472 33.1307 116.324C33.464 116.176 33.8428 116.102 34.2671 116.102C34.6989 116.102 35.0758 116.176 35.3978 116.324C35.7216 116.472 35.9735 116.677 36.1534 116.94C36.3334 117.204 36.4262 117.509 36.4318 117.855H35.2529ZM38.1355 120.134C37.948 120.134 37.787 120.067 37.6525 119.935C37.5199 119.8 37.4536 119.639 37.4536 119.452C37.4536 119.266 37.5199 119.107 37.6525 118.974C37.787 118.842 37.948 118.776 38.1355 118.776C38.3173 118.776 38.4764 118.842 38.6127 118.974C38.7491 119.107 38.8173 119.266 38.8173 119.452C38.8173 119.577 38.7851 119.691 38.7207 119.795C38.6582 119.898 38.5758 119.98 38.4735 120.043C38.3713 120.103 38.2586 120.134 38.1355 120.134ZM39.9456 122V116.182H43.8661V117.196H41.1757V118.582H43.6644V119.597H41.1757V120.986H43.8774V122H39.9456ZM46.1095 116.182L47.2828 118.165H47.3282L48.5072 116.182H49.8964L48.1208 119.091L49.9362 122H48.5214L47.3282 120.014H47.2828L46.0896 122H44.6805L46.5015 119.091L44.7146 116.182H46.1095ZM50.7868 122V116.182H53.0823C53.5235 116.182 53.8995 116.266 54.2101 116.435C54.5207 116.601 54.7574 116.833 54.9203 117.131C55.0851 117.426 55.1675 117.767 55.1675 118.153C55.1675 118.54 55.0842 118.881 54.9175 119.176C54.7508 119.472 54.5093 119.702 54.1931 119.866C53.8787 120.031 53.498 120.114 53.051 120.114H51.5879V119.128H52.8521C53.0889 119.128 53.284 119.087 53.4374 119.006C53.5927 118.922 53.7082 118.808 53.784 118.662C53.8616 118.514 53.9004 118.345 53.9004 118.153C53.9004 117.96 53.8616 117.792 53.784 117.648C53.7082 117.502 53.5927 117.389 53.4374 117.31C53.2821 117.228 53.0851 117.188 52.8465 117.188H52.0169V122H50.7868ZM56.0785 122V116.182H59.9989V117.196H57.3086V118.582H59.7972V119.597H57.3086V120.986H60.0103V122H56.0785ZM61.0889 122V116.182H63.3844C63.8238 116.182 64.1988 116.26 64.5094 116.418C64.8219 116.573 65.0596 116.794 65.2225 117.08C65.3872 117.364 65.4696 117.698 65.4696 118.082C65.4696 118.469 65.3863 118.801 65.2196 119.08C65.0529 119.356 64.8115 119.568 64.4952 119.716C64.1808 119.864 63.8001 119.938 63.3531 119.938H61.8162V118.949H63.1543C63.3891 118.949 63.5842 118.917 63.7395 118.852C63.8948 118.788 64.0103 118.691 64.0861 118.562C64.1637 118.434 64.2026 118.274 64.2026 118.082C64.2026 117.889 64.1637 117.726 64.0861 117.594C64.0103 117.461 63.8939 117.361 63.7367 117.293C63.5814 117.223 63.3853 117.188 63.1486 117.188H62.319V122H61.0889ZM64.231 119.352L65.677 122H64.319L62.9043 119.352H64.231ZM67.681 116.182V122H66.4509V116.182H67.681ZM68.8051 122V116.182H72.7256V117.196H70.0352V118.582H72.5239V119.597H70.0352V120.986H72.7369V122H68.8051ZM78.682 116.182V122H77.6195L75.0883 118.338H75.0457V122H73.8156V116.182H74.8951L77.4065 119.841H77.4576V116.182H78.682ZM79.5888 117.196V116.182H84.3672V117.196H82.5859V122H81.37V117.196H79.5888ZM86.4962 116.182V122H85.2661V116.182H86.4962ZM88.6231 122H87.305L89.3135 116.182H90.8987L92.9044 122H91.5862L90.1288 117.511H90.0834L88.6231 122ZM88.5408 119.713H91.6544V120.673H88.5408V119.713ZM93.7167 122V116.182H94.9468V120.986H97.4411V122H93.7167ZM98.5524 120.134C98.3649 120.134 98.2039 120.067 98.0694 119.935C97.9369 119.8 97.8706 119.639 97.8706 119.452C97.8706 119.266 97.9369 119.107 98.0694 118.974C98.2039 118.842 98.3649 118.776 98.5524 118.776C98.7342 118.776 98.8933 118.842 99.0297 118.974C99.166 119.107 99.2342 119.266 99.2342 119.452C99.2342 119.577 99.202 119.691 99.1376 119.795C99.0751 119.898 98.9927 119.98 98.8905 120.043C98.7882 120.103 98.6755 120.134 98.5524 120.134ZM101.593 116.182V122H100.363V116.182H101.593ZM102.717 116.182H104.234L105.836 120.091H105.904L107.507 116.182H109.024V122H107.83V118.213H107.782L106.276 121.972H105.464L103.958 118.199H103.91V122H102.717V116.182ZM110.149 122V116.182H112.445C112.886 116.182 113.262 116.266 113.572 116.435C113.883 116.601 114.12 116.833 114.283 117.131C114.447 117.426 114.53 117.767 114.53 118.153C114.53 118.54 114.446 118.881 114.28 119.176C114.113 119.472 113.872 119.702 113.555 119.866C113.241 120.031 112.86 120.114 112.413 120.114H110.95V119.128H112.214C112.451 119.128 112.646 119.087 112.8 119.006C112.955 118.922 113.07 118.808 113.146 118.662C113.224 118.514 113.263 118.345 113.263 118.153C113.263 117.96 113.224 117.792 113.146 117.648C113.07 117.502 112.955 117.389 112.8 117.31C112.644 117.228 112.447 117.188 112.209 117.188H111.379V122H110.149ZM115.441 122V116.182H117.736C118.176 116.182 118.551 116.26 118.861 116.418C119.174 116.573 119.411 116.794 119.574 117.08C119.739 117.364 119.821 117.698 119.821 118.082C119.821 118.469 119.738 118.801 119.571 119.08C119.405 119.356 119.163 119.568 118.847 119.716C118.533 119.864 118.152 119.938 117.705 119.938H116.168V118.949H117.506C117.741 118.949 117.936 118.917 118.091 118.852C118.247 118.788 118.362 118.691 118.438 118.562C118.516 118.434 118.554 118.274 118.554 118.082C118.554 117.889 118.516 117.726 118.438 117.594C118.362 117.461 118.246 117.361 118.088 117.293C117.933 117.223 117.737 117.188 117.5 117.188H116.671V122H115.441ZM118.583 119.352L120.029 122H118.671L117.256 119.352H118.583ZM120.803 122V116.182H124.723V117.196H122.033V118.582H124.521V119.597H122.033V120.986H124.735V122H120.803ZM128.969 117.855C128.947 117.626 128.849 117.448 128.677 117.321C128.504 117.194 128.271 117.131 127.975 117.131C127.774 117.131 127.605 117.159 127.467 117.216C127.328 117.271 127.222 117.348 127.148 117.446C127.076 117.545 127.04 117.656 127.04 117.781C127.037 117.885 127.058 117.976 127.106 118.054C127.155 118.132 127.222 118.199 127.308 118.256C127.393 118.311 127.491 118.359 127.603 118.401C127.715 118.44 127.834 118.474 127.961 118.503L128.484 118.628C128.737 118.685 128.97 118.76 129.183 118.855C129.395 118.95 129.578 119.066 129.734 119.205C129.889 119.343 130.009 119.506 130.094 119.693C130.182 119.881 130.226 120.096 130.228 120.338C130.226 120.694 130.135 121.003 129.955 121.264C129.777 121.524 129.52 121.725 129.183 121.869C128.847 122.011 128.443 122.082 127.969 122.082C127.5 122.082 127.091 122.01 126.742 121.866C126.396 121.723 126.125 121.509 125.93 121.227C125.736 120.943 125.635 120.592 125.626 120.173H126.816C126.829 120.368 126.885 120.531 126.984 120.662C127.084 120.791 127.218 120.888 127.384 120.955C127.553 121.019 127.743 121.051 127.955 121.051C128.164 121.051 128.344 121.021 128.498 120.96C128.653 120.9 128.773 120.815 128.859 120.707C128.944 120.599 128.986 120.475 128.986 120.335C128.986 120.205 128.948 120.095 128.87 120.006C128.794 119.917 128.683 119.841 128.535 119.778C128.389 119.716 128.21 119.659 127.998 119.608L127.364 119.449C126.874 119.33 126.486 119.143 126.202 118.889C125.918 118.635 125.777 118.294 125.779 117.864C125.777 117.511 125.871 117.204 126.06 116.94C126.252 116.677 126.514 116.472 126.847 116.324C127.181 116.176 127.559 116.102 127.984 116.102C128.415 116.102 128.792 116.176 129.114 116.324C129.438 116.472 129.69 116.677 129.87 116.94C130.05 117.204 130.143 117.509 130.148 117.855H128.969ZM134.324 117.855C134.301 117.626 134.203 117.448 134.031 117.321C133.859 117.194 133.625 117.131 133.329 117.131C133.129 117.131 132.959 117.159 132.821 117.216C132.683 117.271 132.576 117.348 132.503 117.446C132.431 117.545 132.395 117.656 132.395 117.781C132.391 117.885 132.413 117.976 132.46 118.054C132.509 118.132 132.576 118.199 132.662 118.256C132.747 118.311 132.845 118.359 132.957 118.401C133.069 118.44 133.188 118.474 133.315 118.503L133.838 118.628C134.092 118.685 134.325 118.76 134.537 118.855C134.749 118.95 134.933 119.066 135.088 119.205C135.243 119.343 135.363 119.506 135.449 119.693C135.536 119.881 135.58 120.096 135.582 120.338C135.58 120.694 135.489 121.003 135.309 121.264C135.131 121.524 134.874 121.725 134.537 121.869C134.201 122.011 133.797 122.082 133.324 122.082C132.854 122.082 132.445 122.01 132.096 121.866C131.75 121.723 131.479 121.509 131.284 121.227C131.091 120.943 130.989 120.592 130.98 120.173H132.17C132.183 120.368 132.239 120.531 132.338 120.662C132.438 120.791 132.572 120.888 132.738 120.955C132.907 121.019 133.097 121.051 133.309 121.051C133.518 121.051 133.699 121.021 133.852 120.96C134.007 120.9 134.128 120.815 134.213 120.707C134.298 120.599 134.341 120.475 134.341 120.335C134.341 120.205 134.302 120.095 134.224 120.006C134.148 119.917 134.037 119.841 133.889 119.778C133.743 119.716 133.564 119.659 133.352 119.608L132.719 119.449C132.228 119.33 131.841 119.143 131.557 118.889C131.272 118.635 131.131 118.294 131.133 117.864C131.131 117.511 131.225 117.204 131.415 116.94C131.606 116.677 131.868 116.472 132.201 116.324C132.535 116.176 132.914 116.102 133.338 116.102C133.77 116.102 134.147 116.176 134.469 116.324C134.792 116.472 135.044 116.677 135.224 116.94C135.404 117.204 135.497 117.509 135.503 117.855H134.324ZM137.752 116.182V122H136.522V116.182H137.752ZM144.222 119.091C144.222 119.725 144.102 120.265 143.862 120.71C143.623 121.155 143.297 121.495 142.884 121.73C142.473 121.963 142.011 122.08 141.498 122.08C140.981 122.08 140.517 121.962 140.106 121.727C139.695 121.492 139.37 121.152 139.131 120.707C138.893 120.262 138.773 119.723 138.773 119.091C138.773 118.456 138.893 117.917 139.131 117.472C139.37 117.027 139.695 116.687 140.106 116.455C140.517 116.22 140.981 116.102 141.498 116.102C142.011 116.102 142.473 116.22 142.884 116.455C143.297 116.687 143.623 117.027 143.862 117.472C144.102 117.917 144.222 118.456 144.222 119.091ZM142.975 119.091C142.975 118.68 142.914 118.333 142.791 118.051C142.669 117.769 142.498 117.555 142.276 117.409C142.055 117.263 141.795 117.19 141.498 117.19C141.201 117.19 140.941 117.263 140.719 117.409C140.498 117.555 140.326 117.769 140.202 118.051C140.081 118.333 140.021 118.68 140.021 119.091C140.021 119.502 140.081 119.848 140.202 120.131C140.326 120.413 140.498 120.627 140.719 120.773C140.941 120.919 141.201 120.991 141.498 120.991C141.795 120.991 142.055 120.919 142.276 120.773C142.498 120.627 142.669 120.413 142.791 120.131C142.914 119.848 142.975 119.502 142.975 119.091ZM150.112 116.182V122H149.05L146.518 118.338H146.476V122H145.246V116.182H146.325L148.836 119.841H148.888V116.182H150.112ZM154.397 117.855C154.374 117.626 154.276 117.448 154.104 117.321C153.932 117.194 153.698 117.131 153.402 117.131C153.202 117.131 153.032 117.159 152.894 117.216C152.756 117.271 152.649 117.348 152.576 117.446C152.504 117.545 152.468 117.656 152.468 117.781C152.464 117.885 152.486 117.976 152.533 118.054C152.582 118.132 152.649 118.199 152.735 118.256C152.82 118.311 152.918 118.359 153.03 118.401C153.142 118.44 153.261 118.474 153.388 118.503L153.911 118.628C154.165 118.685 154.398 118.76 154.61 118.855C154.822 118.95 155.006 119.066 155.161 119.205C155.316 119.343 155.436 119.506 155.522 119.693C155.609 119.881 155.653 120.096 155.655 120.338C155.653 120.694 155.562 121.003 155.382 121.264C155.204 121.524 154.947 121.725 154.61 121.869C154.274 122.011 153.87 122.082 153.397 122.082C152.927 122.082 152.518 122.01 152.169 121.866C151.823 121.723 151.552 121.509 151.357 121.227C151.164 120.943 151.062 120.592 151.053 120.173H152.243C152.256 120.368 152.312 120.531 152.411 120.662C152.511 120.791 152.645 120.888 152.811 120.955C152.98 121.019 153.17 121.051 153.382 121.051C153.591 121.051 153.772 121.021 153.925 120.96C154.08 120.9 154.201 120.815 154.286 120.707C154.371 120.599 154.414 120.475 154.414 120.335C154.414 120.205 154.375 120.095 154.297 120.006C154.221 119.917 154.11 119.841 153.962 119.778C153.816 119.716 153.637 119.659 153.425 119.608L152.791 119.449C152.301 119.33 151.914 119.143 151.63 118.889C151.345 118.635 151.204 118.294 151.206 117.864C151.204 117.511 151.298 117.204 151.488 116.94C151.679 116.677 151.941 116.472 152.274 116.324C152.608 116.176 152.987 116.102 153.411 116.102C153.843 116.102 154.22 116.176 154.541 116.324C154.865 116.472 155.117 116.677 155.297 116.94C155.477 117.204 155.57 117.509 155.576 117.855H154.397Z" fill="#9BAC3C"/>
</svg>
